<svg width="32" height="32" viewBox="0 0 32 32" fill="none" xmlns="http://www.w3.org/2000/svg">
<g clip-path="url(#clip0_43_5805)">
<path d="M32 0L29.328 2.96889L26.672 0L24 2.96889L21.328 0L18.672 2.96889L16 0L13.328 2.96889L10.672 0L8 2.96889L5.328 0L2.672 2.96889L0 0V28.4444C0 30.4 1.44 32 3.2 32H28.8C30.56 32 32 30.4 32 28.4444V0ZM14.4 28.4444H3.2V17.7778H14.4V28.4444ZM28.8 28.4444H17.6V24.8889H28.8V28.4444ZM28.8 21.3333H17.6V17.7778H28.8V21.3333ZM28.8 14.2222H3.2V8.88889H28.8V14.2222Z" fill="#0E5706"/>
</g>
<defs>
<clipPath id="clip0_43_5805">
<rect width="32" height="32" fill="white"/>
</clipPath>
</defs>
</svg>
