<svg width="30" height="30" viewBox="0 0 30 30" fill="none" xmlns="http://www.w3.org/2000/svg">
<path d="M25.547 0.047678C25.0899 0.188328 24.668 0.56925 24.4453 1.04394C24.1933 1.58309 24.2519 2.30978 24.5859 2.80205C24.7207 3.0013 24.7207 3.01302 24.6211 3.16539C24.5683 3.2533 23.7303 4.50742 22.7634 5.95493L21.0111 8.58623L20.5599 8.56279C20.0207 8.53349 19.6398 8.63897 19.2647 8.92613L19.0127 9.11952L17.7703 8.49832L16.5221 7.87713V7.51378C16.5221 6.79296 16.1353 6.1659 15.4965 5.8553C15.2562 5.73223 15.1156 5.70879 14.7054 5.70879C14.1135 5.70879 13.7911 5.83186 13.4337 6.18934C12.9355 6.68747 12.7539 7.4962 12.9941 8.1174L13.1055 8.42214L11.5173 10.0103L9.9233 11.6043L9.66544 11.5047C9.51307 11.4461 9.22591 11.4051 8.9915 11.4051C8.48165 11.4051 8.14175 11.5457 7.73738 11.9208C7.35646 12.2783 7.19237 12.6592 7.19237 13.1925V13.5968L5.94997 14.218L4.70757 14.8392L4.42628 14.6283C3.5062 13.9192 2.16418 14.2356 1.65432 15.2788C1.5254 15.5483 1.49023 15.689 1.49023 16.0523C1.49023 16.4333 1.51368 16.5446 1.68363 16.8845C1.8946 17.3123 2.15246 17.5584 2.60956 17.7577C2.97291 17.9218 3.76992 17.8983 4.1274 17.7108C4.73102 17.3944 5.10608 16.7732 5.1178 16.0934V15.689L6.35434 15.0678L7.59087 14.4525L7.90147 14.6693C8.31756 14.9506 8.76881 15.0795 9.19075 15.0326C10.3628 14.8978 11.1071 13.7316 10.732 12.624L10.609 12.2724L12.1971 10.6784L13.7911 9.08436L13.9669 9.18399C14.1017 9.26017 14.2951 9.28361 14.7054 9.28361C15.2973 9.28361 15.5258 9.20743 15.9126 8.87925L16.0884 8.7386L17.3308 9.36566L18.5791 9.99272L18.5966 10.3971C18.6201 11.1062 18.9717 11.6688 19.5988 11.997C19.8508 12.1317 19.9621 12.1552 20.3899 12.1552C21.1811 12.1552 21.6909 11.8505 22.0308 11.1765C22.1773 10.8776 22.2066 10.7487 22.2066 10.3971C22.2066 9.94583 22.107 9.58835 21.9136 9.31291L21.7905 9.14296L23.6424 6.37101L25.4884 3.59906H26.0334C26.5023 3.59906 26.6136 3.58148 26.9066 3.43497C27.5571 3.11265 27.9146 2.54419 27.9146 1.81165C27.9146 1.06152 27.5747 0.493067 26.9418 0.176607C26.6312 0.0183773 26.5257 -0.00506401 26.1389 0.000795364C25.8928 0.000795364 25.6291 0.0242367 25.547 0.047678ZM26.6195 1.07324C26.7836 1.18459 27.0121 1.60068 27.0121 1.78821C27.0063 1.99332 26.7953 2.3801 26.6078 2.50903C26.3382 2.70242 26.0803 2.72586 25.7639 2.58522C25.172 2.3215 25.043 1.62412 25.5119 1.17287C25.8225 0.873989 26.2503 0.832968 26.6195 1.07324ZM15.1156 6.74022C15.5375 6.98049 15.6958 7.4962 15.4731 7.90643C15.3148 8.20531 15.0394 8.37526 14.7054 8.37526C14.0373 8.37526 13.6212 7.67201 13.9494 7.08598C14.1955 6.65231 14.6936 6.5058 15.1156 6.74022ZM20.847 9.60593C21.2631 9.86379 21.4038 10.4498 21.14 10.8366C20.7767 11.3699 20.0734 11.364 19.6749 10.8307C19.1475 10.1275 20.091 9.14296 20.847 9.60593ZM9.44275 12.4541C9.73577 12.6064 9.93502 13.046 9.87642 13.3917C9.81781 13.6847 9.45447 14.0364 9.14387 14.0891C8.63988 14.1712 8.14175 13.7551 8.14175 13.2452C8.14175 12.5361 8.80983 12.1317 9.44275 12.4541ZM3.67029 15.2846C4.26219 15.5542 4.36181 16.2692 3.86368 16.7204C3.41829 17.1189 2.77951 16.9841 2.5158 16.4274C2.31069 16.0055 2.48064 15.519 2.92602 15.2846C3.18388 15.144 3.35969 15.144 3.67029 15.2846Z" fill="#0E5706"/>
<path d="M24.193 6.45892C24.0817 6.52924 23.9469 6.68161 23.8942 6.79296C23.7945 6.98635 23.7887 7.64271 23.7887 18.0566V29.1209H23.2612H22.7338L22.7221 22.3053C22.7045 15.8531 22.6987 15.4839 22.599 15.3315C22.4115 15.0444 22.1654 14.9389 21.6731 14.9389C21.2863 14.9389 21.216 14.9564 21.1046 15.0737C20.9464 15.2436 20.9347 15.5249 21.0812 15.7007C21.1574 15.7945 21.2687 15.8414 21.4914 15.8648L21.7962 15.8941V22.5046V29.1209H20.419H19.0418V22.4987V15.8765H19.2469C19.7743 15.8765 20.0498 15.4136 19.7157 15.0854C19.5927 14.9564 19.5223 14.9389 19.1238 14.9389C18.7781 14.9389 18.6316 14.9682 18.4851 15.0561C18.0807 15.3081 18.1041 14.8392 18.1041 22.3464V29.1209H17.5474H16.9907V20.8696C16.9907 12.794 16.9907 12.6182 16.8735 12.4365C16.6566 12.079 16.5922 12.0673 14.7051 12.0673C12.8181 12.0673 12.7536 12.079 12.5368 12.4365C12.4196 12.6182 12.4196 12.794 12.4196 20.8696V29.1209H11.8628H11.3061V23.7704C11.3061 17.7987 11.3295 18.1503 10.8959 17.8983C10.7025 17.787 10.5911 17.7811 8.99126 17.7811C7.10423 17.7811 7.05734 17.7929 6.81707 18.1855C6.71158 18.3613 6.70572 18.5957 6.68814 23.7411L6.67642 29.1209H6.14899H5.62155V25.2062C5.62155 20.8871 5.63328 21.0571 5.25235 20.7758C5.09412 20.6586 5.01208 20.6527 3.30671 20.6527C1.60134 20.6527 1.5193 20.6586 1.36107 20.7758C0.980146 21.0571 0.991867 20.8871 0.991867 25.2062V29.1209H0.616803C0.276902 29.1209 0.224159 29.1385 0.118672 29.2733C-0.0395575 29.4726 -0.0395575 29.6484 0.118672 29.8476L0.23588 30H14.7051H29.1744L29.2916 29.8476C29.4498 29.6484 29.4498 29.4726 29.2916 29.2733C29.1861 29.1385 29.1333 29.1209 28.7934 29.1209H28.4184V24.2041C28.4184 19.4689 28.4125 19.2814 28.307 19.1525C28.1488 18.9591 27.7503 18.9591 27.5921 19.1525C27.4866 19.2814 27.4807 19.4689 27.4807 24.2041V29.1209H26.1035H24.7263V18.1914V7.26179H26.1035H27.4807V12.413C27.4807 17.5291 27.4807 17.5584 27.6038 17.7167C27.7679 17.9218 28.0726 17.9277 28.2719 17.7225L28.4184 17.5819V12.2607C28.4184 7.05667 28.4125 6.93361 28.3012 6.74607C28.2367 6.64059 28.1019 6.5058 27.9964 6.44134C27.8148 6.32999 27.6975 6.32413 26.0977 6.32413C24.4216 6.32413 24.3864 6.32413 24.193 6.45892ZM16.053 21.0629V29.1209H14.7051H13.3572V21.0629V13.0049H14.7051H16.053V21.0629ZM10.3684 23.9052V29.1209H8.99126H7.61408V23.9052V18.6895H8.99126H10.3684V23.9052ZM4.6839 25.341V29.1209H3.30671H1.92952V25.341V21.5611H3.30671H4.6839V25.341Z" fill="#0E5706"/>
</svg>
