<svg width="31" height="30" viewBox="0 0 31 30" fill="none" xmlns="http://www.w3.org/2000/svg">
<path opacity="0.94" fill-rule="evenodd" clip-rule="evenodd" d="M24.1514 0.0522226C24.9067 -0.103113 25.5507 0.088085 26.0835 0.625819C26.841 0.698786 27.2938 1.11137 27.442 1.86358C27.5689 3.4563 27.267 4.96576 26.5364 6.39197C26.358 6.68722 26.1366 6.94884 25.8722 7.17689C25.9218 7.41031 26.0526 7.60153 26.2647 7.75049C26.9262 7.94104 27.5903 8.12218 28.2572 8.29389C28.9287 8.46338 29.5023 8.79546 29.9779 9.29014C30.2481 9.73483 30.3889 10.2179 30.4006 10.7392C30.4409 12.3694 30.4409 13.9997 30.4006 15.6299C30.374 16.5786 30.3136 17.5245 30.2195 18.4677C29.9091 19.4131 29.255 19.8961 28.2572 19.9168C28.4234 23.2167 28.5542 26.5173 28.6496 29.8188C28.5993 29.8691 28.549 29.9195 28.4987 29.9698C27.3112 30.0101 26.1238 30.0101 24.9363 29.9698C24.886 29.9195 24.8357 29.8691 24.7854 29.8188C24.5324 27.6916 24.311 25.5583 24.1212 23.4187C23.8883 25.3446 23.6871 27.2767 23.5174 29.2151C23.5111 29.4481 23.4608 29.6695 23.3665 29.8792C23.3348 29.921 23.2945 29.9512 23.2457 29.9698C22.0583 30.0101 20.8709 30.0101 19.6834 29.9698C19.6109 29.9153 19.5605 29.8449 19.5325 29.7585C19.6753 25.5916 19.8564 21.4254 20.0759 17.2601C20.1352 15.5039 20.1151 13.753 20.0155 12.0072C18.8283 11.899 17.6912 11.5971 16.6041 11.1015C16.5873 11.5806 16.4967 12.0435 16.3324 12.4902C16.095 12.8656 15.7629 13.1172 15.3361 13.2449C13.1224 13.2751 10.9085 13.2852 8.69451 13.2751C8.69451 13.7984 8.69451 14.3217 8.69451 14.845C9.30228 14.8211 9.90606 14.8513 10.5059 14.9355C10.8303 15.363 11.0919 15.8259 11.2908 16.3242C11.2181 16.6929 10.9967 16.8338 10.6266 16.7469C10.3605 16.4563 10.1391 16.1343 9.96246 15.7808C8.81472 15.7305 7.66753 15.7406 6.52088 15.811C6.36245 16.118 6.18131 16.4099 5.97748 16.6865C5.42313 16.8873 5.19168 16.6961 5.28312 16.1129C5.50258 15.7226 5.73403 15.3402 5.97748 14.9657C6.05567 14.9296 6.13615 14.8994 6.21899 14.8752C6.74187 14.845 7.26517 14.8349 7.78883 14.845C7.78883 14.3217 7.78883 13.7984 7.78883 13.2751C5.59498 13.2852 3.40123 13.2751 1.20757 13.2449C0.613851 13.0537 0.221388 12.6613 0.0301894 12.0676C-0.0100631 8.68635 -0.0100631 5.30516 0.0301894 1.92396C0.221388 1.33024 0.613851 0.937776 1.20757 0.746576C5.98092 0.686729 10.7508 0.706853 15.5173 0.806954C16.0731 1.04063 16.4051 1.45321 16.5135 2.04471C16.5336 3.61456 16.5538 5.1844 16.5739 6.75424C17.6006 7.96199 18.8988 8.41483 20.4683 8.11276C20.9154 8.03119 21.3582 7.93053 21.7967 7.81086C22.0663 7.70484 22.2474 7.51368 22.3401 7.23727C21.5994 6.48042 21.1466 5.57476 20.9815 4.52023C20.8346 4.32126 20.7339 4.09988 20.6796 3.85607C20.4517 2.77355 20.5121 1.70686 20.8608 0.656008C20.9601 0.525482 21.0909 0.444979 21.2532 0.414494C22.2492 0.503286 23.2152 0.382529 24.1514 0.0522226ZM24.2722 0.957901C24.5346 0.947896 24.7962 0.957961 25.0571 0.98809C25.2785 1.12897 25.4596 1.31011 25.6005 1.5315C26.2396 1.42584 26.5717 1.69754 26.5967 2.34661C26.6519 2.57976 26.6318 2.80115 26.5364 3.01077C26.3507 2.77707 26.1092 2.65631 25.8118 2.6485C25.3229 2.76783 24.8298 2.86845 24.3326 2.95039C23.6357 2.8441 22.9413 2.72335 22.2495 2.58812C21.9411 2.61152 21.6795 2.73228 21.4646 2.95039C21.4311 2.42715 21.4814 1.91393 21.6155 1.41074C22.529 1.37876 23.4146 1.22782 24.2722 0.957901ZM1.6906 1.56169C6.07813 1.55162 10.4657 1.56169 14.8531 1.59188C15.2254 1.62181 15.477 1.81301 15.6079 2.16547C15.6481 3.21203 15.6481 4.2586 15.6079 5.30516C14.7903 4.50856 13.9651 4.50856 13.1323 5.30516C12.7506 5.84415 12.7103 6.40767 13.0116 6.99575C13.6023 8.35119 14.4678 9.49838 15.6079 10.4373C15.6481 10.9003 15.6481 11.3631 15.6079 11.826C15.477 12.1785 15.2254 12.3697 14.8531 12.3996C10.4455 12.4399 6.03785 12.4399 1.63022 12.3996C1.29208 12.367 1.06063 12.1959 0.935867 11.8864C0.895613 8.62597 0.895613 5.36553 0.935867 2.10509C1.08917 1.78236 1.34074 1.60122 1.6906 1.56169ZM22.2193 3.4938C22.9146 3.66101 23.6191 3.78177 24.3326 3.85607C24.8325 3.82127 25.3155 3.73071 25.7816 3.58437C25.9599 3.90061 26.1209 4.22263 26.2647 4.55042C26.094 5.50447 25.611 6.24911 24.8156 6.78443C24.1644 7.09508 23.5606 7.01453 23.0042 6.54292C22.1427 5.75793 21.8307 4.80197 22.0684 3.67493C22.1315 3.6222 22.1817 3.56182 22.2193 3.4938ZM14.3097 5.60705C14.5014 5.60722 14.6725 5.66761 14.8229 5.78818C16.3099 8.7448 18.6445 9.73096 21.8268 8.74673C22.1616 9.02085 22.5138 9.27245 22.8835 9.50146C23.1328 9.61914 23.3944 9.6896 23.6684 9.71279C23.6684 11.9871 23.6684 14.2613 23.6684 16.5356C22.7828 16.5356 21.8973 16.5356 21.0117 16.5356C21.0218 15.026 21.0117 13.5165 20.9815 12.0072C20.8979 11.5259 20.6262 11.2139 20.1664 11.0713C17.8827 10.9967 16.0814 10.0407 14.7626 8.20332C14.3735 7.60654 14.0314 6.98265 13.7361 6.33159C13.7554 5.95954 13.9466 5.71802 14.3097 5.60705ZM23.125 7.7203C23.7399 7.95088 24.3538 7.95088 24.9665 7.7203C25.1447 7.87318 25.2956 8.05431 25.4194 8.2637C24.5655 9.04422 23.69 9.06432 22.7929 8.32408C22.906 8.1363 23.0168 7.935 23.125 7.7203ZM26.2647 8.74673C27.185 8.90637 28.0705 9.17808 28.9213 9.56184C29.2075 9.76188 29.3785 10.0336 29.4345 10.377C29.5584 12.9332 29.5383 15.4893 29.3742 18.045C29.2487 18.687 28.8562 19.009 28.1968 19.0111C28.0991 16.537 28.0488 14.0615 28.0458 11.5845C27.9844 11.3923 27.8535 11.3119 27.6534 11.343C27.4314 11.3331 27.2804 11.4338 27.2005 11.6449C27.1703 13.275 27.1603 14.9052 27.1703 16.5356C26.3049 16.5356 25.4395 16.5356 24.5741 16.5356C24.5741 14.2613 24.5741 11.9871 24.5741 9.71279C25.2668 9.60821 25.8303 9.28621 26.2647 8.74673ZM20.9514 17.4412C23.0445 17.4412 25.1376 17.4412 27.2307 17.4412C27.4018 21.3261 27.583 25.2104 27.7741 29.0943C27.0243 29.1326 26.2898 29.0923 25.5703 28.9735C25.3489 26.6792 25.1276 24.3848 24.9061 22.0904C24.7346 21.4259 24.322 21.2146 23.6684 21.4564C23.4944 21.5319 23.3838 21.6627 23.3363 21.8489C23.0689 24.2608 22.8375 26.6759 22.642 29.0943C21.8973 29.0943 21.1526 29.0943 20.4079 29.0943C20.6101 25.2111 20.7912 21.3267 20.9514 17.4412Z" fill="#0E5706"/>
<path opacity="0.922" fill-rule="evenodd" clip-rule="evenodd" d="M2.83785 3.4334C4.62919 3.42334 6.42041 3.4334 8.21154 3.46359C8.61408 3.74536 8.61408 4.02712 8.21154 4.30889C6.40018 4.34914 4.58883 4.34914 2.77747 4.30889C2.55338 4.15716 2.48293 3.94583 2.56615 3.67491C2.65048 3.5801 2.74105 3.4996 2.83785 3.4334Z" fill="#0E5706"/>
<path opacity="0.927" fill-rule="evenodd" clip-rule="evenodd" d="M2.89823 5.48632C5.59521 5.47625 8.29215 5.48632 10.989 5.51651C11.3306 5.62696 11.4413 5.85843 11.321 6.21086C11.2707 6.26116 11.2204 6.31151 11.1701 6.36181C8.37257 6.40208 5.57501 6.40208 2.77747 6.36181C2.55338 6.21008 2.48293 5.99875 2.56615 5.72783C2.6567 5.60897 2.7674 5.52846 2.89823 5.48632Z" fill="#0E5706"/>
<path opacity="0.925" fill-rule="evenodd" clip-rule="evenodd" d="M2.77744 7.59955C5.01154 7.58946 7.24558 7.59955 9.47946 7.62974C9.73281 7.80972 9.78311 8.04115 9.63041 8.32409C9.5597 8.4082 9.46914 8.45855 9.35871 8.47504C7.20518 8.51531 5.0517 8.51531 2.8982 8.47504C2.52893 8.3349 2.43836 8.0833 2.6265 7.7203C2.68656 7.68613 2.73687 7.64586 2.77744 7.59955Z" fill="#0E5706"/>
<path opacity="0.922" fill-rule="evenodd" clip-rule="evenodd" d="M2.77695 9.65246C4.58842 9.64238 6.39978 9.65246 8.21102 9.68265C8.61356 9.96444 8.61356 10.2462 8.21102 10.528C6.41977 10.5682 4.62856 10.5682 2.83733 10.528C2.524 10.3521 2.45356 10.1005 2.62601 9.77322C2.68606 9.73905 2.73638 9.69877 2.77695 9.65246Z" fill="#0E5706"/>
<path opacity="0.929" fill-rule="evenodd" clip-rule="evenodd" d="M16.0003 16.7771C16.1904 16.7596 16.3716 16.7898 16.5437 16.8676C17.3764 17.8817 18.2318 18.8779 19.1098 19.8564C19.2538 20.1156 19.2237 20.3471 19.0192 20.5507C18.6642 20.6359 18.302 20.6661 17.9324 20.6413C17.9425 23.6804 17.9324 26.7195 17.9022 29.7585C17.8741 29.8449 17.8238 29.9153 17.7513 29.9698C16.7449 30.0101 15.7387 30.0101 14.7323 29.9698C14.6261 29.9089 14.5557 29.8184 14.521 29.6981C14.4908 26.6792 14.4807 23.6603 14.4908 20.6413C14.1682 20.6513 13.8462 20.6412 13.5248 20.6111C13.2798 20.4936 13.1892 20.3023 13.2531 20.0375C14.1362 18.923 15.0519 17.8362 16.0003 16.7771ZM16.1814 17.9243C16.7128 18.5063 17.2361 19.1 17.7513 19.7054C17.4363 19.6609 17.2048 19.7715 17.0569 20.0375C17.0267 23.0564 17.0166 26.0753 17.0267 29.0943C16.4833 29.0943 15.9399 29.0943 15.3965 29.0943C15.4066 26.0552 15.3965 23.0161 15.3663 19.9771C15.3361 19.8665 15.2657 19.796 15.155 19.7658C15.0101 19.7546 14.8692 19.7244 14.7323 19.6752C15.2308 19.099 15.7138 18.5153 16.1814 17.9243Z" fill="#0E5706"/>
<path opacity="0.936" fill-rule="evenodd" clip-rule="evenodd" d="M10.3851 21.7885C11.3715 21.7784 12.3577 21.7885 13.3436 21.8187C13.4543 21.8489 13.5248 21.9194 13.555 22.03C13.5952 24.6062 13.5952 27.1823 13.555 29.7585C13.5248 29.8692 13.4543 29.9396 13.3436 29.9698C12.3575 30.0101 11.3712 30.0101 10.3851 29.9698C10.2744 29.9396 10.2039 29.8692 10.1738 29.7585C10.1335 27.1823 10.1335 24.6062 10.1738 22.03C10.2154 21.9183 10.2858 21.8378 10.3851 21.7885ZM11.0492 22.6942C11.5927 22.6942 12.1361 22.6942 12.6795 22.6942C12.6795 24.8275 12.6795 26.961 12.6795 29.0943C12.1361 29.0943 11.5927 29.0943 11.0492 29.0943C11.0492 26.961 11.0492 24.8275 11.0492 22.6942Z" fill="#0E5706"/>
<path opacity="0.935" fill-rule="evenodd" clip-rule="evenodd" d="M6.09779 23.8414C7.04392 23.8313 7.98987 23.8414 8.93558 23.8716C9.06642 23.9219 9.15699 24.0125 9.20729 24.1433C9.24756 26.0151 9.24756 27.8868 9.20729 29.7585C9.1771 29.8692 9.10664 29.9397 8.99596 29.9699C8.0098 30.0101 7.02358 30.0101 6.03741 29.9699C5.92674 29.9397 5.85628 29.8692 5.82609 29.7585C5.78583 27.8868 5.78583 26.0151 5.82609 24.1433C5.88798 24.0113 5.97855 23.9106 6.09779 23.8414ZM6.70158 24.7471C7.24498 24.7471 7.78839 24.7471 8.3318 24.7471C8.3318 26.1962 8.3318 27.6453 8.3318 29.0944C7.78839 29.0944 7.24498 29.0944 6.70158 29.0944C6.70158 27.6453 6.70158 26.1962 6.70158 24.7471Z" fill="#0E5706"/>
</svg>
