<svg width="32" height="32" viewBox="0 0 32 32" fill="none" xmlns="http://www.w3.org/2000/svg">
<path d="M18.7728 11.6667C18.7728 12.62 18.1275 13.4 17.3389 13.4H4.43389C3.64525 13.4 3 12.62 3 11.6667C3 10.7133 3.64525 9.93333 4.43389 9.93333H17.3389C18.1275 9.93333 18.7728 10.7133 18.7728 11.6667ZM3 4.73333C3 5.68667 3.64525 6.46667 4.43389 6.46667H17.3389C18.1275 6.46667 18.7728 5.68667 18.7728 4.73333C18.7728 3.78 18.1275 3 17.3389 3H4.43389C3.64525 3 3 3.78 3 4.73333ZM13.0372 18.6C13.0372 17.6467 12.392 16.8667 11.6033 16.8667H4.43389C3.64525 16.8667 3 17.6467 3 18.6C3 19.5533 3.64525 20.3333 4.43389 20.3333H11.6033C12.392 20.3333 13.0372 19.5533 13.0372 18.6ZM24.5227 14.908L25.5407 13.6773C25.6734 13.5166 25.831 13.3892 26.0044 13.3022C26.1779 13.2152 26.3638 13.1704 26.5516 13.1704C26.7394 13.1704 26.9254 13.2152 27.0988 13.3022C27.2723 13.3892 27.4299 13.5166 27.5625 13.6773L28.5806 14.908C29.1398 15.584 29.1398 16.676 28.5806 17.352L27.5625 18.5827L24.5227 14.908ZM23.5046 16.1387L16.1058 25.0827C15.9767 25.2387 15.905 25.4467 15.905 25.6893V28.1333C15.905 28.6187 16.2205 29 16.622 29H18.6437C18.8301 29 19.0165 28.9133 19.1456 28.74L26.5445 19.796L23.5046 16.1387Z" fill="#0E5706"/>
</svg>
