<svg width="32" height="32" viewBox="0 0 32 32" fill="none" xmlns="http://www.w3.org/2000/svg">
<path d="M25.4364 16C25.4909 16.45 25.5455 16.9 25.5455 17.3636C25.5455 20.2 24.4545 22.7773 22.6818 24.7136C22.3273 23.6091 21.3182 22.8182 20.0909 22.8182H18.7273V18.7273C18.7273 17.9773 18.1136 17.3636 17.3636 17.3636H9.18182V14.6364H11.9091C12.6591 14.6364 13.2727 14.0227 13.2727 13.2727V10.5455H16C17.5 10.5455 18.7273 9.31818 18.7273 7.81818V4.35455C17.4318 3.94545 16.0682 3.72727 14.6364 3.72727C7.10909 3.72727 1 9.83636 1 17.3636C1 24.8909 7.10909 31 14.6364 31C22.1636 31 28.2727 24.8909 28.2727 17.3636C28.2727 16.9 28.2455 16.45 28.2045 16H25.4364ZM13.2727 28.1773C7.88636 27.5091 3.72727 22.9273 3.72727 17.3636C3.72727 16.5182 3.83636 15.7136 4.01364 14.9227L10.5455 21.4545V22.8182C10.5455 24.3182 11.7727 25.5455 13.2727 25.5455V28.1773ZM29.6364 5.09091V4.40909C29.6364 3.50494 29.2772 2.63783 28.6379 1.9985C27.9985 1.35917 27.1314 1 26.2273 1C25.3231 1 24.456 1.35917 23.8167 1.9985C23.1774 2.63783 22.8182 3.50494 22.8182 4.40909V5.09091C22.0682 5.09091 21.4545 5.70455 21.4545 6.45455V11.9091C21.4545 12.6591 22.0682 13.2727 22.8182 13.2727H29.6364C30.3864 13.2727 31 12.6591 31 11.9091V6.45455C31 5.70455 30.3864 5.09091 29.6364 5.09091ZM28.2727 5.09091H24.1818V4.40909C24.1818 3.27727 25.0955 2.36364 26.2273 2.36364C27.3591 2.36364 28.2727 3.27727 28.2727 4.40909V5.09091Z" fill="#074400"/>
</svg>
