<svg width="28" height="30" viewBox="0 0 28 30" fill="none" xmlns="http://www.w3.org/2000/svg">
<path opacity="0.934" fill-rule="evenodd" clip-rule="evenodd" d="M7.44507 0C8.07009 0 8.69505 0 9.32007 0C12.7267 0.623162 14.8653 2.61535 15.7361 5.97656C15.7847 6.24861 15.8238 6.52207 15.8533 6.79688C15.8826 7.75371 15.8924 8.71072 15.8826 9.66797C14.9841 9.66797 14.0857 9.66797 13.1873 9.66797C13.2106 8.63062 13.1813 7.59545 13.0994 6.5625C12.4433 4.15876 10.871 2.85017 8.38257 2.63672C6.2647 2.78179 4.77056 3.81695 3.90015 5.74219C3.75638 6.14145 3.65872 6.5516 3.60718 6.97266C3.57788 8.30062 3.56812 9.62877 3.57788 10.957C7.97241 10.957 12.3669 10.957 16.7615 10.957C16.7615 12.168 16.7615 13.3789 16.7615 14.5898C20.0498 13.6078 22.9111 14.3109 25.3455 16.6992C27.3543 19.0675 27.9012 21.7433 26.9861 24.7266C26.2092 26.8705 24.7835 28.4135 22.7087 29.3555C22.6635 29.347 22.6244 29.3275 22.5916 29.2969C22.4841 29.043 22.3767 28.789 22.2693 28.5352C22.8163 28.2814 23.3241 27.9689 23.7927 27.5977C23.9973 26.8929 23.802 26.3363 23.2068 25.9277C22.5751 25.655 21.9208 25.4499 21.2439 25.3125C20.5751 26.5174 19.6278 26.8006 18.4021 26.1621C18.2751 26.0351 18.1482 25.9082 18.0212 25.7812C17.9522 25.6035 17.8546 25.4473 17.7283 25.3125C17.0058 25.4515 16.3124 25.6761 15.6482 25.9863C15.1434 26.4172 14.9871 26.9544 15.1794 27.5977C17.1099 29.0228 19.2388 29.4329 21.5662 28.8281C21.6259 29.106 21.704 29.3794 21.8005 29.6484C21.3566 29.8111 20.9074 29.9283 20.4529 30C19.8083 30 19.1638 30 18.5193 30C15.1574 29.4118 12.9309 27.4978 11.8396 24.2578C8.24599 24.209 4.65226 24.1797 1.05835 24.1699C0.521239 24.0234 0.179444 23.6817 0.0329598 23.1445C0.00366293 19.0821 -0.00610464 15.0196 0.00366293 10.957C0.296632 10.957 0.5896 10.957 0.882569 10.957C0.872808 9.57018 0.882569 8.18344 0.911866 6.79688C1.07912 5.17031 1.69435 3.74452 2.75757 2.51953C3.00906 2.69277 3.24343 2.88808 3.46069 3.10547C2.5556 4.19345 2.01849 5.44345 1.84937 6.85547C1.82007 8.22252 1.81031 9.58969 1.82007 10.957C2.09351 10.957 2.36694 10.957 2.64038 10.957C2.63062 9.58969 2.64038 8.22252 2.66968 6.85547C3.08808 4.19234 4.60175 2.52241 7.21069 1.8457C9.88216 1.44853 11.9427 2.37626 13.3923 4.62891C14.047 5.93941 14.2912 7.32615 14.1248 8.78906C14.3982 8.78906 14.6716 8.78906 14.9451 8.78906C15.2307 6.2952 14.4689 4.19558 12.6599 2.49023C10.5751 0.837428 8.28993 0.485865 5.80444 1.43555C5.16161 1.74705 4.56591 2.12791 4.01733 2.57812C3.81226 2.33398 3.60718 2.08985 3.4021 1.8457C4.57745 0.847793 5.92509 0.232556 7.44507 0ZM0.941163 11.8945C5.90212 11.8945 10.863 11.8945 15.824 11.8945C15.8435 12.9499 15.824 14.0046 15.7654 15.0586C13.0722 16.615 11.6659 18.9587 11.5466 22.0898C11.5597 22.4811 11.5792 22.8717 11.6052 23.2617C8.14814 23.2715 4.6911 23.2617 1.23413 23.2324C1.1503 23.2052 1.08193 23.1563 1.02905 23.0859C0.941591 19.3603 0.912294 15.6299 0.941163 11.8945ZM19.4568 15.0586C22.7636 15.2514 25 16.8921 26.1658 19.9805C26.8553 22.4265 26.4061 24.6336 24.8181 26.6016C24.5074 25.6269 23.8531 25.0117 22.8552 24.7559C22.3292 24.6195 21.8019 24.4925 21.2732 24.375C21.2635 24.1593 21.2733 23.9445 21.3025 23.7305C21.9473 23.2617 22.3574 22.6368 22.533 21.8555C22.572 20.9961 22.572 20.1367 22.533 19.2773C22.2302 17.959 21.4197 17.1485 20.1013 16.8457C18.7262 16.6403 17.6422 17.0992 16.8494 18.2227C16.655 18.5518 16.5183 18.9033 16.4392 19.2773C16.4001 20.1367 16.4001 20.9961 16.4392 21.8555C16.6148 22.6368 17.0249 23.2617 17.6697 23.7305C17.6989 23.9445 17.7086 24.1593 17.699 24.375C16.8964 24.5268 16.1152 24.7514 15.3552 25.0488C14.7324 25.3978 14.332 25.9153 14.1541 26.6016C12.2543 24.1613 11.9809 21.5441 13.3337 18.75C14.7045 16.4187 16.7455 15.1882 19.4568 15.0586ZM9.90601 16.0547C10.1522 16.2314 10.3378 16.4463 10.4626 16.6992C9.6806 17.4911 8.88958 18.2723 8.0896 19.043C7.47519 18.4579 6.86974 17.8622 6.27319 17.2559C6.45876 17.0703 6.64427 16.8848 6.82983 16.6992C7.23999 17.1094 7.65015 17.5195 8.0603 17.9297C8.68737 17.3124 9.30261 16.6874 9.90601 16.0547ZM19.4568 17.6953C20.3826 17.7721 21.0565 18.2214 21.4783 19.043C21.5676 19.2316 21.6067 19.4269 21.5955 19.6289C21.4989 19.5576 21.3915 19.5088 21.2732 19.4824C20.0818 19.4433 18.8904 19.4433 17.699 19.4824C17.5807 19.5088 17.4733 19.5576 17.3767 19.6289C17.4773 18.8245 17.8971 18.2484 18.6365 17.9004C18.9109 17.8035 19.1843 17.7352 19.4568 17.6953ZM18.1677 20.332C19.0469 20.3222 19.9258 20.332 20.8044 20.3613C21.52 20.5136 21.7837 20.953 21.5955 21.6797C21.2146 22.8612 20.4041 23.4179 19.1638 23.3496C17.8896 23.0376 17.294 22.2271 17.3767 20.918C17.5514 20.596 17.8151 20.4006 18.1677 20.332ZM18.6365 24.1992C19.1834 24.3529 19.7302 24.3529 20.2771 24.1992C20.4828 24.9407 20.2192 25.4094 19.4861 25.6055C18.7724 25.41 18.4892 24.9412 18.6365 24.1992Z" fill="#0E5706"/>
<path opacity="0.879" fill-rule="evenodd" clip-rule="evenodd" d="M12.3081 12.7148C12.6206 12.7148 12.9331 12.7148 13.2456 12.7148C13.2456 13.0273 13.2456 13.3399 13.2456 13.6523C12.9331 13.6523 12.6206 13.6523 12.3081 13.6523C12.3081 13.3399 12.3081 13.0273 12.3081 12.7148Z" fill="#0E5706"/>
<path opacity="0.879" fill-rule="evenodd" clip-rule="evenodd" d="M14.0659 12.7148C14.3784 12.7148 14.6909 12.7148 15.0034 12.7148C15.0034 13.0273 15.0034 13.3399 15.0034 13.6523C14.6909 13.6523 14.3784 13.6523 14.0659 13.6523C14.0659 13.3399 14.0659 13.0273 14.0659 12.7148Z" fill="#0E5706"/>
</svg>
