<svg width="33" height="30" viewBox="0 0 33 30" fill="none" xmlns="http://www.w3.org/2000/svg">
<path opacity="0.96" fill-rule="evenodd" clip-rule="evenodd" d="M0 16.0219C0 13.5327 0 11.0434 0 8.5542C0.0942971 8.40695 0.221951 8.28995 0.382961 8.20315C1.19143 8.1819 1.9999 8.16058 2.80838 8.13932C3.21809 6.62331 4.19676 5.72974 5.74441 5.4586C6.76564 5.43735 7.78686 5.41603 8.80809 5.39477C13.1696 3.6289 17.5311 1.86303 21.8926 0.0971526C22.7179 -0.00555098 23.5476 -0.0268244 24.3818 0.0333259C25.8084 0.289954 26.7339 1.10906 27.1583 2.49066C27.232 5.71161 27.2639 8.93486 27.254 12.1604C27.2434 15.2773 27.2328 18.3942 27.2221 21.511C26.8611 23.2337 25.808 24.2018 24.0627 24.4151C23.4244 24.4577 22.7862 24.4577 22.1479 24.4151C18.0842 22.8088 14.0206 21.2026 9.95697 19.5962C9.93572 19.6388 9.9144 19.6813 9.89315 19.7239C10.6697 22.7876 11.4462 25.8512 12.2228 28.9149C12.2654 29.149 12.2654 29.383 12.2228 29.617C12.143 29.8009 12.0047 29.9179 11.808 29.9681C10.7441 30.0106 9.68041 30.0106 8.61661 29.9681C8.46675 29.946 8.34975 29.8715 8.26556 29.7447C6.93388 26.0263 5.61481 22.3031 4.30831 18.575C3.51779 18.0692 3.01782 17.3564 2.80838 16.4368C2.04246 16.4155 1.27654 16.3942 0.510614 16.373C0.280245 16.3331 0.110041 16.2161 0 16.0219ZM23.1691 1.4056C24.399 1.266 25.2607 1.75534 25.7541 2.87362C25.8278 6.00942 25.8597 9.14759 25.8498 12.2881C25.8392 15.3198 25.8286 18.3516 25.8179 21.3834C25.4479 22.7135 24.5649 23.3093 23.1691 23.1705C23.1691 15.9155 23.1691 8.6606 23.1691 1.4056ZM21.6373 1.72473C21.7224 5.20304 21.7649 8.70285 21.7649 12.2242C21.7543 15.724 21.7437 19.2239 21.733 22.7237C17.6915 21.0752 13.6385 19.4583 9.57401 17.8729C9.55276 14.1069 9.57401 10.3411 9.63784 6.57557C13.6492 4.96941 17.6489 3.35247 21.6373 1.72473ZM6.12737 6.83087C6.80821 6.83087 7.48898 6.83087 8.16982 6.83087C8.16982 10.4477 8.16982 14.0646 8.16982 17.6814C7.36108 17.6921 6.55258 17.6814 5.74441 17.6495C4.95277 17.4323 4.43152 16.9324 4.18065 16.1496C4.1094 14.8536 4.07749 13.5558 4.08491 12.2561C4.07709 10.9776 4.109 9.7011 4.18065 8.42654C4.49921 7.47942 5.14811 6.94755 6.12737 6.83087ZM1.40419 9.57542C1.8297 9.57542 2.25521 9.57542 2.68072 9.57542C2.68072 11.3838 2.68072 13.1923 2.68072 15.0007C2.25521 15.0007 1.8297 15.0007 1.40419 15.0007C1.40419 13.1923 1.40419 11.3838 1.40419 9.57542ZM6.06354 19.0856C6.80821 19.0856 7.55281 19.0856 8.29748 19.0856C9.02855 22.2545 9.79447 25.414 10.5952 28.5639C10.2123 28.6065 9.82932 28.6065 9.44636 28.5639C8.27437 25.4202 7.14675 22.2608 6.06354 19.0856Z" fill="#0E5706"/>
<path opacity="0.924" fill-rule="evenodd" clip-rule="evenodd" d="M32.6794 4.46934C32.6794 4.74592 32.6794 5.0225 32.6794 5.29908C31.9902 5.95637 31.3093 6.62655 30.6369 7.30963C30.3448 7.40383 30.047 7.42515 29.7433 7.37345C29.4077 7.06332 29.3545 6.71227 29.5838 6.32031C30.3005 5.5609 31.0558 4.84814 31.8496 4.18212C32.1952 4.10047 32.4719 4.19621 32.6794 4.46934Z" fill="#0E5706"/>
<path opacity="0.938" fill-rule="evenodd" clip-rule="evenodd" d="M5.87151 8.17113C6.11235 8.156 6.34638 8.18792 6.57361 8.26687C6.70043 8.35106 6.77491 8.46805 6.797 8.61792C6.83957 9.25618 6.83957 9.89445 6.797 10.5327C6.72251 10.6923 6.60552 10.8093 6.44595 10.8838C6.2332 10.9263 6.02044 10.9263 5.80768 10.8838C5.64812 10.8093 5.5311 10.6923 5.45664 10.5327C5.39723 9.82597 5.4185 9.12387 5.52046 8.42644C5.61619 8.30076 5.7332 8.21568 5.87151 8.17113Z" fill="#0E5706"/>
<path opacity="0.901" fill-rule="evenodd" clip-rule="evenodd" d="M11.2337 10.9158C12.0309 10.8088 12.3607 11.1492 12.223 11.937C11.7147 12.4798 11.2679 12.4372 10.8826 11.8094C10.8401 11.6817 10.8401 11.5541 10.8826 11.4264C10.962 11.2301 11.079 11.0599 11.2337 10.9158Z" fill="#0E5706"/>
<path opacity="0.951" fill-rule="evenodd" clip-rule="evenodd" d="M32.6787 11.9369C32.6787 12.171 32.6787 12.405 32.6787 12.639C32.5847 12.7433 32.4784 12.8391 32.3595 12.9262C31.2107 12.9688 30.0618 12.9688 28.9129 12.9262C28.665 12.7846 28.5586 12.5718 28.5938 12.288C28.5461 11.8937 28.7162 11.6596 29.1044 11.5859C30.1256 11.5433 31.1468 11.5433 32.1681 11.5859C32.3984 11.6258 32.5686 11.7428 32.6787 11.9369Z" fill="#0E5706"/>
<path opacity="0.941" fill-rule="evenodd" clip-rule="evenodd" d="M11.361 13.5965C11.729 13.559 12.0162 13.6867 12.2226 13.9794C12.2439 14.5964 12.2652 15.2134 12.2865 15.8304C12.322 16.1424 12.4815 16.3658 12.7652 16.5006C13.4084 16.7221 14.0466 16.9561 14.68 17.2027C15.2284 17.71 15.1646 18.1143 14.4885 18.4154C14.297 18.458 14.1055 18.458 13.9141 18.4154C13.152 18.1544 12.4074 17.8566 11.6801 17.5218C10.9854 16.8634 10.7089 16.0549 10.8504 15.0964C10.8439 14.6978 10.8758 14.3042 10.9461 13.9156C11.0613 13.7671 11.1996 13.6608 11.361 13.5965Z" fill="#0E5706"/>
<path opacity="0.927" fill-rule="evenodd" clip-rule="evenodd" d="M32.6788 19.2771C32.6788 19.5536 32.6788 19.8303 32.6788 20.1068C32.2808 20.4073 31.8553 20.4392 31.4023 20.2026C30.7534 19.5536 30.1045 18.9048 29.4556 18.2559C29.1662 17.4414 29.4535 17.0691 30.3172 17.1389C31.1153 17.8412 31.9024 18.554 32.6788 19.2771Z" fill="#0E5706"/>
</svg>
