<svg width="32" height="32" viewBox="0 0 32 32" fill="none" xmlns="http://www.w3.org/2000/svg">
<path d="M26.1111 4H24.6667V1H21.7778V4H10.2222V1H7.33333V4H5.88889C4.3 4 3 5.35 3 7V28C3 29.65 4.3 31 5.88889 31H26.1111C27.7 31 29 29.65 29 28V7C29 5.35 27.7 4 26.1111 4ZM26.1111 28H5.88889V13H26.1111V28ZM26.1111 10H5.88889V7H26.1111V10ZM22.4856 16.795L20.9544 15.205L13.92 22.51L10.8722 19.345L9.34111 20.935L13.92 25.69L22.4856 16.795Z" fill="#0E5706"/>
<path opacity="0.3" d="M6.6665 6.6665H25.3332V9.33317H6.6665V6.6665Z" fill="#0E5706"/>
</svg>
