<svg width="33" height="30" viewBox="0 0 33 30" fill="none" xmlns="http://www.w3.org/2000/svg">
<path opacity="0.973" fill-rule="evenodd" clip-rule="evenodd" d="M32.7186 13.5097C32.7186 14.5108 32.7186 15.512 32.7186 16.5131C31.9922 22.1914 29.0526 26.2706 23.8999 28.7507C19.1176 30.6908 14.4953 30.3713 10.0329 27.7921C8.28375 26.6608 6.8033 25.2443 5.59156 23.5425C5.21491 22.7203 5.39598 22.0494 6.13474 21.5296C6.79717 21.2701 7.38291 21.3873 7.89209 21.881C10.3204 25.2898 13.6433 27.0791 17.861 27.2489C22.964 26.9888 26.6491 24.5817 28.9164 20.0278C30.6885 15.6055 30.1772 11.4731 27.3827 7.63054C24.3119 3.98254 20.4031 2.50211 15.6564 3.18925C10.7957 4.29026 7.62184 7.2192 6.13474 11.976C6.15604 11.9973 6.17735 12.0186 6.19864 12.0399C6.92248 11.5287 7.66804 11.0494 8.43527 10.6021C9.70567 10.4026 10.3128 10.9458 10.2565 12.2316C10.2232 12.4472 10.138 12.6389 10.0009 12.8067C8.32114 14.0176 6.60635 15.1786 4.85667 16.2895C4.2135 16.4721 3.67032 16.3124 3.22713 15.8102C2.1331 14.1747 1.05739 12.5346 0 10.8896C0 10.5488 0 10.208 0 9.86717C0.438654 9.05221 1.09899 8.80727 1.98101 9.13228C2.15964 9.24686 2.3194 9.38534 2.46029 9.54765C2.8011 10.0589 3.14193 10.5701 3.48274 11.0813C5.07419 5.71957 8.53566 2.19424 13.8671 0.505299C19.7251 -0.878725 24.7415 0.580404 28.9164 4.88269C31.0897 7.35525 32.3571 10.2309 32.7186 13.5097Z" fill="#0E5706"/>
<path opacity="0.976" fill-rule="evenodd" clip-rule="evenodd" d="M17.6373 6.672C18.3726 6.70331 18.8519 7.06545 19.0752 7.75836C19.0965 9.9737 19.1178 12.189 19.1391 14.4043C20.5297 15.7308 21.8504 17.1154 23.1011 18.5581C23.3508 19.9239 22.7864 20.5522 21.4076 20.4432C21.2194 20.3917 21.049 20.3065 20.8964 20.1876C19.4355 18.748 17.9976 17.2889 16.5829 15.8102C16.519 15.6824 16.4551 15.5546 16.3912 15.4268C16.3486 12.828 16.3486 10.2293 16.3912 7.63055C16.6185 7.05491 17.0338 6.73539 17.6373 6.672Z" fill="#0E5706"/>
</svg>
