<svg width="32" height="32" viewBox="0 0 32 32" fill="none" xmlns="http://www.w3.org/2000/svg">
<path d="M21.6 4.8C21.6 3.26 22.86 2 24.4 2C25.94 2 27.2 3.26 27.2 4.8C27.2 6.34 25.94 7.6 24.4 7.6C22.86 7.6 21.6 6.34 21.6 4.8ZM28.292 9.812C27.0644 9.27634 25.7394 8.9999 24.4 9C23.462 9 22.566 9.14 21.712 9.392C22.524 10.162 23 11.24 23 12.402V13.2H30V12.402C30 11.268 29.328 10.26 28.292 9.812ZM7.6 7.6C9.14 7.6 10.4 6.34 10.4 4.8C10.4 3.26 9.14 2 7.6 2C6.06 2 4.8 3.26 4.8 4.8C4.8 6.34 6.06 7.6 7.6 7.6ZM10.288 9.392C9.434 9.14 8.538 9 7.6 9C6.214 9 4.898 9.294 3.708 9.812C3.2008 10.0288 2.76849 10.3899 2.46483 10.8504C2.16116 11.3108 1.99952 11.8504 2 12.402V13.2H9V12.402C9 11.24 9.476 10.162 10.288 9.392ZM13.2 4.8C13.2 3.26 14.46 2 16 2C17.54 2 18.8 3.26 18.8 4.8C18.8 6.34 17.54 7.6 16 7.6C14.46 7.6 13.2 6.34 13.2 4.8ZM21.6 13.2H10.4V12.402C10.4 11.268 11.072 10.26 12.108 9.812C13.3356 9.27623 14.6606 8.99969 16 8.99969C17.3394 8.99969 18.6644 9.27623 19.892 9.812C20.3992 10.0288 20.8315 10.3899 21.1352 10.8504C21.4388 11.3108 21.6005 11.8504 21.6 12.402V13.2ZM20.2 21.6C20.2 20.06 21.46 18.8 23 18.8C24.54 18.8 25.8 20.06 25.8 21.6C25.8 23.14 24.54 24.4 23 24.4C21.46 24.4 20.2 23.14 20.2 21.6ZM28.6 30H17.4V29.202C17.4 28.068 18.072 27.06 19.108 26.612C20.3356 26.0762 21.6606 25.7997 23 25.7997C24.3394 25.7997 25.6644 26.0762 26.892 26.612C27.3992 26.8288 27.8315 27.1899 28.1352 27.6504C28.4388 28.1108 28.6005 28.6504 28.6 29.202V30ZM6.2 21.6C6.2 20.06 7.46 18.8 9 18.8C10.54 18.8 11.8 20.06 11.8 21.6C11.8 23.14 10.54 24.4 9 24.4C7.46 24.4 6.2 23.14 6.2 21.6ZM14.6 30H3.4V29.202C3.4 28.068 4.072 27.06 5.108 26.612C6.3356 26.0762 7.66059 25.7997 9 25.7997C10.3394 25.7997 11.6644 26.0762 12.892 26.612C13.3992 26.8288 13.8315 27.1899 14.1352 27.6504C14.4388 28.1108 14.6005 28.6504 14.6 29.202V30ZM17.05 17.4V14.6H14.95V17.4H11.8L16 21.6L20.2 17.4H17.05Z" fill="#0E5706"/>
</svg>
