<svg width="32" height="32" viewBox="0 0 32 32" fill="none" xmlns="http://www.w3.org/2000/svg">
<path d="M26.1111 2.90909H20.0733C19.4667 1.22182 17.8778 0 16 0C14.1222 0 12.5333 1.22182 11.9267 2.90909H5.88889C4.3 2.90909 3 4.21818 3 5.81818V29.0909C3 30.6909 4.3 32 5.88889 32H26.1111C27.7 32 29 30.6909 29 29.0909V5.81818C29 4.21818 27.7 2.90909 26.1111 2.90909ZM16 2.90909C16.7944 2.90909 17.4444 3.56364 17.4444 4.36364C17.4444 5.16364 16.7944 5.81818 16 5.81818C15.2056 5.81818 14.5556 5.16364 14.5556 4.36364C14.5556 3.56364 15.2056 2.90909 16 2.90909ZM26.1111 29.0909H5.88889V5.81818H8.77778V10.1818H23.2222V5.81818H26.1111V29.0909Z" fill="#074400"/>
</svg>
