<svg width="32" height="32" viewBox="0 0 32 32" fill="none" xmlns="http://www.w3.org/2000/svg">
<path d="M26.5553 13.6744L28.1306 12.1433C29.2898 11.0167 29.2898 9.18222 28.1306 8.05556L26.0352 6.01889C24.876 4.89222 22.9886 4.89222 21.8294 6.01889L20.2541 7.55L26.5553 13.6744ZM20.2541 15.7256L9.55387 26.1111H7.45842V24.0744L18.1438 13.6889L20.2541 15.7256ZM18.1438 9.58667L4.48614 22.8756V29H10.7874L24.445 15.7256L18.1438 9.58667ZM26.7782 23.9444C26.7782 27.1078 23.0034 29 19.3475 29C18.5302 29 17.8614 28.35 17.8614 27.5556C17.8614 26.7611 18.5302 26.1111 19.3475 26.1111C21.6362 26.1111 23.8059 25.0567 23.8059 23.9444C23.8059 23.2656 23.0926 22.6878 21.978 22.2111L24.1775 20.0733C25.7676 20.9833 26.7782 22.1967 26.7782 23.9444ZM5.3481 17.95C3.90654 17.1411 3 16.0867 3 14.5556C3 11.9556 5.8088 10.7567 8.29065 9.70222C9.82138 9.03778 11.9168 8.14222 11.9168 7.33333C11.9168 6.74111 10.7576 5.88889 8.94456 5.88889C7.07202 5.88889 6.26951 6.77 6.22492 6.81333C5.70477 7.40556 4.76851 7.47778 4.14433 6.98667C3.84631 6.74877 3.65607 6.40684 3.6144 6.03421C3.57272 5.66158 3.68294 5.28791 3.92141 4.99333C4.08488 4.79111 5.6156 3 8.94456 3C12.2735 3 14.8891 4.90667 14.8891 7.33333C14.8891 10.0344 12.0209 11.2622 9.47957 12.3456C8.0826 12.9378 5.97228 13.8333 5.97228 14.5556C5.97228 15.0033 6.61132 15.4222 7.56245 15.7978L5.3481 17.95Z" fill="#0E5706"/>
</svg>
