<svg width="32" height="32" viewBox="0 0 32 32" fill="none" xmlns="http://www.w3.org/2000/svg">
<path d="M16.714 13.186C16.714 10.876 14.824 8.986 12.514 8.986C10.204 8.986 8.314 10.876 8.314 13.186C8.314 15.496 10.204 17.386 12.514 17.386C14.824 17.386 16.714 15.496 16.714 13.186ZM12.514 14.586C11.744 14.586 11.114 13.956 11.114 13.186C11.114 12.416 11.744 11.786 12.514 11.786C13.284 11.786 13.914 12.416 13.914 13.186C13.914 13.956 13.284 14.586 12.514 14.586ZM21.614 17.386C23.168 17.386 24.414 16.14 24.414 14.586C24.414 13.032 23.168 11.786 21.614 11.786C20.06 11.786 18.8 13.032 18.814 14.586C18.814 16.14 20.06 17.386 21.614 17.386ZM16 2C8.272 2 2 8.272 2 16C2 23.728 8.272 30 16 30C23.728 30 30 23.728 30 16C30 8.272 23.728 2 16 2ZM7.39 23.154C8.342 22.398 10.568 21.6 12.514 21.6C12.612 21.6 12.724 21.614 12.836 21.614C13.172 20.718 13.774 19.808 14.656 19.01C13.9497 18.8747 13.2331 18.7997 12.514 18.786C10.694 18.786 7.768 19.416 5.892 20.788C5.192 19.332 4.8 17.708 4.8 15.986C4.8 9.812 9.826 4.786 16 4.786C22.174 4.786 27.2 9.812 27.2 15.986C27.2 17.666 26.822 19.262 26.15 20.704C24.75 19.878 22.846 19.486 21.614 19.486C19.486 19.486 15.314 20.62 15.314 23.266V27.158C13.7889 27.0713 12.298 26.6709 10.9346 25.982C9.57121 25.2931 8.36454 24.3303 7.39 23.154Z" fill="#074400"/>
</svg>
