<svg width="20" height="18" viewBox="0 0 20 18" fill="none" xmlns="http://www.w3.org/2000/svg">
<path d="M2 14.5V13.85C2 13.51 2.16 13.19 2.41 13.04C4.1 12.03 6.03 11.5 8 11.5C8.03 11.5 8.05 11.5 8.08 11.51C8.18 10.81 8.38 10.14 8.67 9.53C8.45 9.51 8.23 9.5 8 9.5C5.58 9.5 3.32 10.17 1.39 11.32C0.51 11.84 0 12.82 0 13.85V16.5H9.26C8.84 15.9 8.51 15.22 8.29 14.5H2ZM8 8.5C10.21 8.5 12 6.71 12 4.5C12 2.29 10.21 0.5 8 0.5C5.79 0.5 4 2.29 4 4.5C4 6.71 5.79 8.5 8 8.5ZM8 2.5C9.1 2.5 10 3.4 10 4.5C10 5.6 9.1 6.5 8 6.5C6.9 6.5 6 5.6 6 4.5C6 3.4 6.9 2.5 8 2.5ZM18.75 12.5C18.75 12.28 18.72 12.08 18.69 11.87L19.83 10.86L18.83 9.13L17.38 9.62C17.06 9.35 16.7 9.14 16.3 8.99L16 7.5H14L13.7 8.99C13.3 9.14 12.94 9.35 12.62 9.62L11.17 9.13L10.17 10.86L11.31 11.87C11.28 12.08 11.25 12.28 11.25 12.5C11.25 12.72 11.28 12.92 11.31 13.13L10.17 14.14L11.17 15.87L12.62 15.38C12.94 15.65 13.3 15.86 13.7 16.01L14 17.5H16L16.3 16.01C16.7 15.86 17.06 15.65 17.38 15.38L18.83 15.87L19.83 14.14L18.69 13.13C18.72 12.92 18.75 12.72 18.75 12.5ZM15 14.5C13.9 14.5 13 13.6 13 12.5C13 11.4 13.9 10.5 15 10.5C16.1 10.5 17 11.4 17 12.5C17 13.6 16.1 14.5 15 14.5Z" fill="white"/>
</svg>
