<svg width="30" height="30" viewBox="0 0 30 30" fill="none" xmlns="http://www.w3.org/2000/svg">
<path opacity="0.988" fill-rule="evenodd" clip-rule="evenodd" d="M24.0845 0C26.455 0.147385 27.9137 1.37475 28.4608 3.68209C28.6591 5.03199 28.3271 6.22919 27.4648 7.27364C28.374 7.15364 29.1084 7.44537 29.668 8.14889C29.7721 8.34048 29.8526 8.54167 29.9094 8.75251C29.9497 13.9034 29.9497 19.0543 29.9094 24.2052C29.7183 24.9597 29.2455 25.4326 28.4909 25.6237C25.03 25.6338 21.5692 25.664 18.1086 25.7143C18.3345 26.3314 18.5356 26.9551 18.7123 27.5855C19.3624 27.5582 20.0062 27.5883 20.6439 27.676C20.6816 27.7213 20.7118 27.7717 20.7344 27.8269C20.7646 28.2288 20.7746 28.6313 20.7646 29.0342C22.4548 29.0241 24.145 29.0342 25.835 29.0644C26.017 29.1567 26.0975 29.3076 26.0764 29.5171C26.0975 29.7266 26.017 29.8775 25.835 29.9698C18.5915 30.0101 11.3481 30.0101 4.10463 29.9698C3.92257 29.8775 3.84209 29.7266 3.86318 29.5171C3.84209 29.3076 3.92257 29.1567 4.10463 29.0644C5.79465 29.0342 7.48479 29.0241 9.17505 29.0342C9.16503 28.6313 9.17505 28.2288 9.20523 27.8269C9.2278 27.7717 9.25798 27.7213 9.29577 27.676C9.93338 27.5883 10.5773 27.5582 11.2274 27.5855C11.404 26.9551 11.6052 26.3314 11.831 25.7143C8.37042 25.664 4.90963 25.6338 1.44869 25.6237C0.694165 25.4326 0.22133 24.9597 0.0301812 24.2052C-0.0100604 19.0543 -0.0100604 13.9034 0.0301812 8.75251C0.22133 7.99798 0.694165 7.52517 1.44869 7.334C2.73626 7.30382 4.02399 7.29374 5.31187 7.30382C5.30181 6.0964 5.31187 4.88916 5.34205 3.68209C5.37223 3.57143 5.44266 3.501 5.55332 3.47082C6.35813 3.43058 7.16299 3.43058 7.9678 3.47082C8.07845 3.501 8.14889 3.57143 8.17907 3.68209C8.20925 4.88916 8.21933 6.0964 8.20925 7.30382C8.37024 7.30382 8.53116 7.30382 8.69215 7.30382C8.68207 4.96973 8.69215 2.63573 8.72233 0.301811C8.75251 0.191147 8.82295 0.120724 8.9336 0.0905432C9.73841 0.0503016 10.5433 0.0503016 11.3481 0.0905432C11.4587 0.120724 11.5292 0.191147 11.5594 0.301811C11.5895 2.63573 11.5996 4.96973 11.5895 7.30382C11.7505 7.30382 11.9114 7.30382 12.0724 7.30382C12.0623 5.61356 12.0724 3.92342 12.1026 2.2334C12.1328 2.12274 12.2032 2.05231 12.3139 2.02213C13.1187 1.98189 13.9236 1.98189 14.7284 2.02213C14.839 2.05231 14.9094 2.12274 14.9396 2.2334C14.9698 3.92342 14.9799 5.61356 14.9698 7.30382C16.9216 7.3139 18.8733 7.30382 20.8249 7.27364C19.7494 5.91923 19.4979 4.42027 20.0704 2.77666C20.8584 1.0501 22.1965 0.124544 24.0845 0ZM9.65794 1.02616C9.97985 1.02616 10.3018 1.02616 10.6237 1.02616C10.6237 4.72837 10.6237 8.4306 10.6237 12.1328C10.3018 12.1328 9.97985 12.1328 9.65794 12.1328C9.65794 8.4306 9.65794 4.72837 9.65794 1.02616ZM23.5412 1.08652C23.6216 1.57783 23.6618 2.09091 23.662 2.62575C23.6519 3.13883 23.6419 3.65191 23.6318 4.16499C22.9074 4.88933 22.1831 5.61368 21.4587 6.33803C20.8983 5.58513 20.6972 4.74006 20.8551 3.80281C21.198 2.34323 22.0934 1.4378 23.5412 1.08652ZM24.6278 1.08652C26.1696 1.40094 27.1152 2.3265 27.4648 3.86318C26.52 3.9235 25.5743 3.94362 24.6278 3.92354C24.6278 2.97786 24.6278 2.03219 24.6278 1.08652ZM13.0382 2.95774C13.3601 2.95774 13.6821 2.95774 14.004 2.95774C14.004 6.01611 14.004 9.07442 14.004 12.1328C13.6821 12.1328 13.3601 12.1328 13.0382 12.1328C13.0382 9.07442 13.0382 6.01611 13.0382 2.95774ZM6.27766 4.40644C6.59957 4.40644 6.92155 4.40644 7.24346 4.40644C7.24346 6.98191 7.24346 9.55732 7.24346 12.1328C6.92155 12.1328 6.59957 12.1328 6.27766 12.1328C6.27766 9.55732 6.27766 6.98191 6.27766 4.40644ZM24.3863 4.88933C25.4132 4.86925 26.4394 4.88936 27.4648 4.9497C27.1351 6.43629 26.2297 7.35181 24.7485 7.69617C23.8112 7.85414 22.9662 7.65295 22.2133 7.09255C22.9498 6.36609 23.6742 5.6317 24.3863 4.88933ZM1.93159 8.26961C3.05835 8.26961 4.18511 8.26961 5.31187 8.26961C5.31187 9.55732 5.31187 10.8451 5.31187 12.1328C5.1509 12.1328 4.98994 12.1328 4.82897 12.1328C4.83903 11.0863 4.82897 10.04 4.79879 8.99396C4.76861 8.88332 4.69818 8.81287 4.58752 8.78269C3.7827 8.74243 2.97786 8.74243 2.17304 8.78269C2.06238 8.81287 1.99195 8.88332 1.96177 8.99396C1.92153 10.2817 1.92153 11.5694 1.96177 12.8571C1.99195 12.9678 2.06238 13.0382 2.17304 13.0684C7.48491 13.1087 12.7968 13.1087 18.1086 13.0684C18.2193 13.0382 18.2897 12.9678 18.3199 12.8571C18.3789 11.5238 18.3588 10.1958 18.2595 8.87323C18.2143 8.83545 18.1639 8.80527 18.1086 8.78269C17.3038 8.74243 16.499 8.74243 15.6942 8.78269C15.5835 8.81287 15.5131 8.88332 15.4829 8.99396C15.4527 10.04 15.4426 11.0863 15.4527 12.1328C15.2917 12.1328 15.1308 12.1328 14.9698 12.1328C14.9698 10.8451 14.9698 9.55732 14.9698 8.26961C17.3643 8.25953 19.7586 8.26961 22.1529 8.29979C23.1159 8.75432 24.1219 8.87505 25.171 8.66197C25.511 8.58887 25.8329 8.46814 26.1368 8.29979C26.7605 8.25953 27.3843 8.25953 28.008 8.29979C28.5614 8.37024 28.8732 8.68207 28.9436 9.23541C28.9738 13.4205 28.9839 17.6056 28.9738 21.7907C19.6378 21.7907 10.3018 21.7907 0.965794 21.7907C0.955732 17.6056 0.965794 13.4205 0.995975 9.23541C1.07722 8.6814 1.38908 8.35949 1.93159 8.26961ZM8.20925 8.26961C8.37024 8.26961 8.53116 8.26961 8.69215 8.26961C8.69215 9.55732 8.69215 10.8451 8.69215 12.1328C8.53116 12.1328 8.37024 12.1328 8.20925 12.1328C8.20925 10.8451 8.20925 9.55732 8.20925 8.26961ZM11.5895 8.26961C11.7505 8.26961 11.9114 8.26961 12.0724 8.26961C12.0724 9.55732 12.0724 10.8451 12.0724 12.1328C11.9114 12.1328 11.7505 12.1328 11.5895 12.1328C11.5895 10.8451 11.5895 9.55732 11.5895 8.26961ZM2.89738 9.7183C3.21931 9.7183 3.54125 9.7183 3.86318 9.7183C3.86318 10.5231 3.86318 11.328 3.86318 12.1328C3.54125 12.1328 3.21931 12.1328 2.89738 12.1328C2.89738 11.328 2.89738 10.5231 2.89738 9.7183ZM16.4185 9.7183C16.7404 9.7183 17.0624 9.7183 17.3843 9.7183C17.3843 10.5231 17.3843 11.328 17.3843 12.1328C17.0624 12.1328 16.7404 12.1328 16.4185 12.1328C16.4185 11.328 16.4185 10.5231 16.4185 9.7183ZM18.6519 15.0905C19.2163 15.0824 19.3773 15.3339 19.1348 15.8451C18.6191 16.0456 18.3877 15.8746 18.4406 15.332C18.4823 15.2203 18.5527 15.1398 18.6519 15.0905ZM3.19919 17.0221C3.7636 17.014 3.92457 17.2655 3.68209 17.7767C3.16637 17.9772 2.93498 17.8062 2.98793 17.2636C3.02956 17.1519 3.09998 17.0714 3.19919 17.0221ZM26.3783 18.4708C26.9426 18.4627 27.1036 18.7142 26.8612 19.2253C26.3454 19.4259 26.1141 19.2549 26.167 18.7123C26.2086 18.6006 26.279 18.5201 26.3783 18.4708ZM10.9255 19.4366C11.4899 19.4285 11.6509 19.68 11.4084 20.1911C10.8927 20.3917 10.6613 20.2207 10.7143 19.6781C10.7559 19.5664 10.8263 19.4859 10.9255 19.4366ZM0.965794 22.7565C10.3018 22.7565 19.6378 22.7565 28.9738 22.7565C28.9839 23.0791 28.9738 23.401 28.9436 23.7223C28.8732 24.2757 28.5614 24.5875 28.008 24.6579C19.3159 24.6982 10.6237 24.6982 1.93159 24.6579C1.37827 24.5875 1.0664 24.2757 0.995975 23.7223C0.965831 23.401 0.955774 23.0791 0.965794 22.7565ZM12.9175 25.6539C14.2857 25.6539 15.6539 25.6539 17.0221 25.6539C17.1987 26.2843 17.3999 26.9081 17.6257 27.5251C15.8551 27.6056 14.0845 27.6056 12.3139 27.5251C12.5397 26.9081 12.7409 26.2843 12.9175 25.6539ZM10.1408 28.5513C13.3601 28.5513 16.5795 28.5513 19.7988 28.5513C19.7988 28.7123 19.7988 28.8732 19.7988 29.0342C16.5795 29.0342 13.3601 29.0342 10.1408 29.0342C10.1408 28.8732 10.1408 28.7123 10.1408 28.5513Z" fill="#0E5706"/>
<path opacity="0.954" fill-rule="evenodd" clip-rule="evenodd" d="M21.9723 9.23547C23.5821 9.22539 25.1917 9.23547 26.8013 9.26565C26.9833 9.35795 27.0638 9.50885 27.0427 9.71837C27.0638 9.92788 26.9833 10.0788 26.8013 10.1711C25.3526 10.1912 23.9039 10.2113 22.4552 10.2314C21.8516 10.8351 21.2479 11.4387 20.6443 12.0423C19.9099 12.2737 19.6584 12.0222 19.8898 11.2878C20.5776 10.5898 21.2718 9.90573 21.9723 9.23547Z" fill="#0E5706"/>
<path opacity="0.985" fill-rule="evenodd" clip-rule="evenodd" d="M2.17332 13.5814C4.10501 13.5713 6.03662 13.5814 7.96809 13.6116C8.15014 13.7039 8.2306 13.8548 8.20954 14.0643C8.2306 14.2738 8.15014 14.4247 7.96809 14.517C6.0365 14.5573 4.10491 14.5573 2.17332 14.517C1.99127 14.4247 1.91078 14.2738 1.93187 14.0643C1.91874 13.8491 1.99922 13.6881 2.17332 13.5814Z" fill="#0E5706"/>
<path opacity="0.931" fill-rule="evenodd" clip-rule="evenodd" d="M8.93325 13.5814C9.30273 13.5566 9.6649 13.5868 10.0198 13.6719C10.3032 14.3027 10.102 14.5944 9.41615 14.5472C8.82248 14.6477 8.59112 14.4063 8.72198 13.8228C8.76363 13.7111 8.83401 13.6306 8.93325 13.5814Z" fill="#0E5706"/>
<path opacity="0.934" fill-rule="evenodd" clip-rule="evenodd" d="M18.4103 14.0643C19.3865 13.9184 20.0304 14.3107 20.3419 15.2414C21.9966 16.1743 23.6364 17.13 25.2614 18.1086C25.8547 17.404 26.569 17.2531 27.4043 17.6559C28.0528 18.2469 28.1836 18.9411 27.7966 19.7384C27.2056 20.3869 26.5115 20.5177 25.7141 20.1307C25.3878 19.8802 25.1664 19.5583 25.0502 19.1649C23.3955 18.2321 21.7557 17.2763 20.1306 16.2977C19.6353 16.939 19.0015 17.1301 18.2292 16.8712C17.983 16.7459 17.7718 16.5749 17.5954 16.3581C15.9081 17.629 14.2279 18.9067 12.5552 20.1911C12.1991 21.174 11.515 21.5161 10.5029 21.2173C10.0717 20.9875 9.7699 20.6454 9.59745 20.1911C8.00099 19.5438 6.41147 18.8798 4.82884 18.1992C4.60239 18.3023 4.40119 18.4633 4.22522 18.6821C2.94943 19.1911 2.16472 18.7786 1.87109 17.4446C2.16472 16.1106 2.94943 15.6981 4.22522 16.2072C4.53571 16.4468 4.75704 16.7487 4.8892 17.1126C6.48566 17.76 8.07518 18.4239 9.65781 19.1046C9.88423 19.0014 10.0855 18.8404 10.2614 18.6217C11.0588 18.2348 11.7529 18.3656 12.3439 19.014C14.0313 17.7431 15.7114 16.4655 17.3842 15.181C17.5516 14.6417 17.8937 14.2694 18.4103 14.0643ZM18.6518 15.0905C18.5525 15.1398 18.4822 15.2203 18.4405 15.332C18.3876 15.8745 18.6189 16.0456 19.1347 15.845C19.3771 15.3339 19.2162 15.0824 18.6518 15.0905ZM3.19906 17.0221C3.09985 17.0713 3.02943 17.1519 2.98779 17.2635C2.93485 17.8061 3.16624 17.9771 3.68196 17.7766C3.92443 17.2655 3.76347 17.0139 3.19906 17.0221ZM26.3781 18.4708C26.2789 18.52 26.2085 18.6006 26.1669 18.7122C26.1139 19.2548 26.3453 19.4258 26.861 19.2253C27.1035 18.7142 26.9425 18.4626 26.3781 18.4708ZM10.9254 19.4366C10.8262 19.4858 10.7558 19.5664 10.7141 19.678C10.6612 20.2206 10.8926 20.3916 11.4083 20.1911C11.6508 19.68 11.4898 19.4284 10.9254 19.4366Z" fill="#0E5706"/>
<path opacity="0.96" fill-rule="evenodd" clip-rule="evenodd" d="M21.0064 18.8934C21.6506 18.8833 22.2945 18.8934 22.938 18.9236C23.0487 18.9538 23.1191 19.0242 23.1493 19.1349C23.1896 19.2959 23.1896 19.4568 23.1493 19.6178C23.1191 19.7284 23.0487 19.7989 22.938 19.829C22.2942 19.8693 21.6503 19.8693 21.0064 19.829C20.8244 19.7367 20.7439 19.5858 20.765 19.3763C20.7518 19.1611 20.8324 19.0001 21.0064 18.8934Z" fill="#0E5706"/>
<path opacity="0.978" fill-rule="evenodd" clip-rule="evenodd" d="M19.0738 20.3422C20.3617 20.3321 21.6494 20.3422 22.937 20.3723C23.0476 20.4025 23.1181 20.473 23.1483 20.5836C23.1885 20.7446 23.1885 20.9055 23.1483 21.0665C23.1181 21.1771 23.0476 21.2476 22.937 21.2778C21.6493 21.318 20.3615 21.318 19.0738 21.2778C18.8918 21.1855 18.8113 21.0346 18.8324 20.8251C18.8192 20.6098 18.8997 20.4489 19.0738 20.3422Z" fill="#0E5706"/>
<path opacity="0.976" fill-rule="evenodd" clip-rule="evenodd" d="M2.17332 23.2394C3.30026 23.2293 4.42702 23.2394 5.5536 23.2696C5.66425 23.2997 5.73469 23.3702 5.76487 23.4808C5.80513 23.6418 5.80513 23.8027 5.76487 23.9637C5.73469 24.0744 5.66425 24.1448 5.5536 24.175C4.42684 24.2153 3.30008 24.2153 2.17332 24.175C1.99127 24.0827 1.91078 23.9318 1.93187 23.7223C1.91874 23.507 1.99922 23.3461 2.17332 23.2394Z" fill="#0E5706"/>
<path opacity="0.931" fill-rule="evenodd" clip-rule="evenodd" d="M6.51919 23.2396C6.88866 23.2148 7.25084 23.245 7.60571 23.3301C7.88917 23.9609 7.68798 24.2526 7.00208 24.2054C6.40842 24.3059 6.17705 24.0645 6.30792 23.481C6.34957 23.3693 6.41995 23.2888 6.51919 23.2396Z" fill="#0E5706"/>
</svg>
