<svg width="32" height="32" viewBox="0 0 32 32" fill="none" xmlns="http://www.w3.org/2000/svg">
<path d="M29.8615 11.5078L28.391 5.19556C28.0829 3.89556 26.9905 3 25.7161 3H6.26386C5.00346 3 3.8971 3.91 3.60301 5.19556L2.13253 11.5078C1.79642 12.9811 2.10452 14.4833 3.00081 15.6678C3.11285 15.8267 3.2669 15.9422 3.39294 16.0867V26.1111C3.39294 27.7 4.65334 29 6.19384 29H25.8001C27.3406 29 28.601 27.7 28.601 26.1111V16.0867C28.7271 15.9567 28.8811 15.8267 28.9932 15.6822C29.8895 14.4978 30.2116 12.9811 29.8615 11.5078ZM25.6741 5.87444L27.1446 12.1867C27.2846 12.7933 27.1586 13.4 26.7945 13.8767C26.5984 14.1367 26.1783 14.5556 25.478 14.5556C24.6238 14.5556 23.8815 13.8478 23.7835 12.9089L22.9712 5.88889L25.6741 5.87444ZM17.3974 5.88889H20.1423L20.8986 12.4178C20.9686 12.9811 20.8005 13.5444 20.4364 13.9633C20.1283 14.3389 19.6802 14.5556 19.106 14.5556C18.1677 14.5556 17.3974 13.7033 17.3974 12.6633V5.88889ZM11.0814 12.4178L11.8517 5.88889H14.5965V12.6633C14.5965 13.7033 13.8263 14.5556 12.79 14.5556C12.3138 14.5556 11.8797 14.3389 11.5436 13.9633C11.369 13.7515 11.238 13.5052 11.1585 13.2395C11.0791 12.9738 11.0529 12.6943 11.0814 12.4178ZM4.84941 12.1867L6.26386 5.88889H9.02275L8.21049 12.9089C8.09845 13.8478 7.37022 14.5556 6.51594 14.5556C5.82972 14.5556 5.39558 14.1367 5.21352 13.8767C4.8354 13.4144 4.70936 12.7933 4.84941 12.1867ZM6.19384 26.1111V17.4011C6.30588 17.4156 6.40391 17.4444 6.51594 17.4444C7.73433 17.4444 8.84069 16.9244 9.65295 16.0722C10.4932 16.9389 11.6136 17.4444 12.888 17.4444C14.1064 17.4444 15.1987 16.9244 16.011 16.1011C16.8373 16.9244 17.9576 17.4444 19.218 17.4444C20.3944 17.4444 21.5148 16.9389 22.355 16.0722C23.1673 16.9244 24.2737 17.4444 25.4921 17.4444C25.6041 17.4444 25.7021 17.4156 25.8142 17.4011V26.1111H6.19384Z" fill="#074400"/>
</svg>
