<svg width="28" height="30" viewBox="0 0 28 30" fill="none" xmlns="http://www.w3.org/2000/svg">
<path d="M1.58203 3.16406L0 6.32812V7.83984C0 8.95312 0.0234375 9.42773 0.0820313 9.62109C0.1875 9.97852 0.486328 10.4062 0.767578 10.5938L0.990235 10.752L0.996094 15.3633V19.9805H0.498047H0V24.9902V30H14.0039H28.0078V24.9902V19.9805H27.5098H27.0117V15.3633L27.0176 10.752L27.2402 10.5938C27.5215 10.4062 27.8203 9.97852 27.9258 9.62109C27.9844 9.42773 28.0078 8.95312 28.0078 7.83984V6.32812L26.4258 3.16406L24.8438 0H14.0039H3.16406L1.58203 3.16406ZM4.00195 3.79102C3.57422 5.30273 3.19336 6.63281 3.1582 6.75L3.09961 6.97266H2.08008H1.05469V6.79688C1.05469 6.68555 1.55859 5.61328 2.44336 3.83789L3.83789 1.05469H4.3125H4.78711L4.00195 3.79102ZM6.85547 1.16016C6.85547 1.25977 6.13477 6.38086 6.06445 6.7793L6.0293 6.97266H5.12109C4.2832 6.97266 4.21289 6.9668 4.24219 6.86719C4.25977 6.81445 4.63477 5.50195 5.07422 3.95508C5.51367 2.4082 5.88281 1.125 5.90039 1.0957C5.91211 1.07227 6.13477 1.05469 6.39258 1.05469C6.80274 1.05469 6.85547 1.06641 6.85547 1.16016ZM8.96484 4.01367V6.97266H8.05664C7.21875 6.97266 7.14844 6.9668 7.14844 6.86719C7.14844 6.76758 7.86914 1.64648 7.93945 1.24219L7.97461 1.05469H8.4668H8.96484V4.01367ZM11.9531 4.01367V6.97266H10.9863H10.0195V4.01367V1.05469H10.9863H11.9531V4.01367ZM15 4.01367V6.97266H14.0039H13.0078V4.01367V1.05469H14.0039H15V4.01367ZM17.9883 4.01367V6.97266H17.0215H16.0547V4.01367V1.05469H17.0215H17.9883V4.01367ZM20.0684 1.24219C20.1387 1.64648 20.8594 6.76758 20.8594 6.86719C20.8594 6.9668 20.7891 6.97266 19.9512 6.97266H19.043V4.01367V1.05469H19.541H20.0332L20.0684 1.24219ZM22.9219 3.89648C23.3613 5.44336 23.7363 6.76758 23.7598 6.83789L23.7891 6.97266H22.8867H21.9785L21.9434 6.7793C21.8731 6.375 21.1523 1.25977 21.1523 1.16016C21.1523 1.06055 21.1992 1.04883 21.6328 1.06641L22.1133 1.08398L22.9219 3.89648ZM25.5645 3.83789C26.4492 5.61328 26.9531 6.68555 26.9531 6.79688V6.97266H25.9277H24.9082L24.8496 6.75C24.8145 6.63281 24.4336 5.30273 24.0059 3.79102L23.2207 1.05469H23.6953H24.1699L25.5645 3.83789ZM2.98828 8.53711C2.98828 9.21094 2.91797 9.43359 2.63672 9.68555C2.26758 10.0254 1.81055 10.043 1.41797 9.75C1.13086 9.52734 1.05469 9.29883 1.05469 8.61328V8.02734H2.02148H2.98828V8.53711ZM5.97656 8.60156C5.97656 9.09375 5.95899 9.2168 5.8418 9.43359C5.58984 9.91406 5.00391 10.0898 4.54102 9.82617C4.16016 9.60938 4.04297 9.33984 4.04297 8.625V8.02734H5.00977H5.97656V8.60156ZM8.96484 8.625C8.96484 9.33984 8.84766 9.60938 8.4668 9.82617C8.00391 10.0898 7.41797 9.91406 7.16602 9.43359C7.04883 9.2168 7.03125 9.09375 7.03125 8.60156V8.02734H7.99805H8.96484V8.625ZM11.9531 8.61328C11.9531 9.29883 11.877 9.52734 11.5898 9.75C11.1973 10.043 10.7402 10.0254 10.3711 9.68555C10.0898 9.43359 10.0195 9.21094 10.0195 8.53711V8.02734H10.9863H11.9531V8.61328ZM14.9883 8.625C14.959 9.28711 14.8828 9.49805 14.5898 9.74414C14.1387 10.1309 13.4297 9.9668 13.1426 9.41016C13.0781 9.29297 13.0371 9.02344 13.0195 8.625L12.9902 8.02734H14.0039H15.0176L14.9883 8.625ZM17.9883 8.53711C17.9883 9.21094 17.918 9.43359 17.6367 9.68555C17.2676 10.0254 16.8105 10.043 16.418 9.75C16.1309 9.52734 16.0547 9.29883 16.0547 8.61328V8.02734H17.0215H17.9883V8.53711ZM20.9766 8.60156C20.9766 9.09375 20.959 9.2168 20.8418 9.43359C20.5898 9.91406 20.0039 10.0898 19.541 9.82617C19.1602 9.60938 19.043 9.33984 19.043 8.625V8.02734H20.0098H20.9766V8.60156ZM23.9648 8.625C23.9648 9.33984 23.8477 9.60938 23.4668 9.82617C23.0039 10.0898 22.418 9.91406 22.166 9.43359C22.0488 9.2168 22.0313 9.09375 22.0313 8.60156V8.02734H22.9981H23.9648V8.625ZM26.9531 8.61328C26.9531 9.29883 26.877 9.52734 26.5898 9.75C26.1973 10.043 25.7402 10.0254 25.3711 9.68555C25.0898 9.43359 25.0195 9.21094 25.0195 8.53711V8.02734H25.9863H26.9531V8.61328ZM3.71484 10.541C4.00781 10.8457 4.41211 10.9863 5.00977 10.9863C5.60156 10.9863 5.90625 10.8809 6.28711 10.5469L6.50391 10.3594L6.7207 10.5469C7.10742 10.8867 7.40039 10.9863 8.02734 10.9863C8.63086 10.9805 8.86524 10.9043 9.32227 10.541L9.53321 10.377L9.66797 10.5234C9.74414 10.5996 9.95508 10.7402 10.1309 10.8281C10.418 10.9688 10.5234 10.9863 11.0156 10.9863C11.502 10.9805 11.6074 10.9629 11.8711 10.8281C12.0352 10.7402 12.252 10.6055 12.3457 10.5234L12.5215 10.377L12.6504 10.5117C12.8848 10.7637 13.4121 10.9746 13.8633 11.0039C14.3906 11.0391 14.8125 10.916 15.2168 10.6113L15.5039 10.3887L15.7031 10.5527C16.1016 10.8867 16.3828 10.9805 16.9922 10.9805C17.6191 10.9805 17.918 10.8809 18.3047 10.5469L18.5215 10.3535L18.709 10.5352C19.043 10.8574 19.4121 10.9863 20.0098 10.9863C20.6016 10.9863 20.9063 10.8809 21.2871 10.5469L21.5039 10.3594L21.7207 10.5469C22.1074 10.8867 22.4004 10.9863 23.0273 10.9863C23.6309 10.9805 23.8652 10.9043 24.3223 10.541L24.5332 10.377L24.6621 10.5117C24.8496 10.7051 25.3535 10.9512 25.6816 10.9922L25.957 11.0332V15.5039V19.9805H25.4883H25.0195V17.9883V15.9961H24.293H23.5664L23.543 15.0703C23.5137 13.9805 23.4434 13.7637 22.9863 13.3535L22.6934 13.0957L22.8574 12.6152L23.0156 12.1348L22.5703 11.9883C22.3184 11.9004 22.0898 11.8359 22.0606 11.8359C22.0254 11.8359 21.9082 12.0996 21.8027 12.4219C21.6152 13.002 21.6094 13.0137 21.3516 13.1309C21.2109 13.2012 21.0762 13.2773 21.0586 13.3066C21.041 13.3359 20.9531 13.3008 20.8652 13.2363L20.6953 13.1133L20.8418 12.6797C20.9238 12.4395 20.9766 12.2109 20.959 12.1699C20.9356 12.1055 20.209 11.8359 20.0508 11.8359C20.0156 11.8359 19.8984 12.1055 19.793 12.4277C19.6055 13.0078 19.5938 13.0254 19.3477 13.1367C19.2129 13.2012 19.084 13.2773 19.0664 13.3066C19.0488 13.3359 18.9609 13.3066 18.8672 13.2422L18.6973 13.125L18.8496 12.6855C18.9316 12.4395 18.9844 12.2109 18.9668 12.1699C18.9375 12.0879 18.0703 11.7949 18.0176 11.8477C18 11.8652 17.9004 12.1289 17.7949 12.4395L17.6074 13.002L17.2852 13.166C16.9336 13.3477 16.6348 13.7227 16.5234 14.1094C16.4941 14.2266 16.4648 14.7012 16.4648 15.1582V15.9961H15.7324H15V17.9883V19.9805H14.0098H13.0195L12.9961 19.4004C12.9785 18.8789 12.9551 18.7852 12.7559 18.3809C12.4395 17.7422 11.8125 17.2148 11.209 17.0801L11.0156 17.0391V16.5645C11.0156 15.1582 10.1016 14.1504 8.68945 13.9922C7.96289 13.9102 7.56445 13.998 7.27734 14.291L7.06641 14.5137L6.79688 14.3438C6.39258 14.0859 5.9707 13.9863 5.30274 13.9805C4.62891 13.9805 4.44141 14.0508 4.17773 14.3965C4.02539 14.5898 4.01367 14.6602 3.99609 15.2109C3.97266 15.873 4.06055 16.3066 4.3125 16.7344L4.45313 16.9805L4.01953 17.0039C3.66797 17.0215 3.55664 17.0508 3.38672 17.1797C3.07031 17.4258 2.98828 17.6543 2.98828 18.3223C2.98828 18.9375 3.07031 19.3066 3.30469 19.7227L3.45117 19.9805H2.74805H2.05078V15.5039V11.0332L2.33203 10.9922C2.6543 10.9512 3.16406 10.7051 3.3457 10.5117C3.50977 10.3359 3.51563 10.3359 3.71484 10.541ZM18.3223 14.1914C18.4512 14.3145 18.457 14.3555 18.457 15.1582V15.9961H17.9883H17.5195V15.2344C17.5195 14.4609 17.584 14.1738 17.7656 14.1035C17.9473 14.0273 18.1934 14.0684 18.3223 14.1914ZM20.3145 14.1914C20.4434 14.3145 20.4492 14.3555 20.4492 15.1582V15.9961H19.9805H19.5117V15.2695C19.5117 14.5195 19.5586 14.2617 19.7285 14.1328C19.8809 14.0215 20.1621 14.0508 20.3145 14.1914ZM22.2656 14.1211C22.4414 14.2148 22.5 14.5078 22.5 15.2695V15.9961H21.9961H21.4922L21.5156 15.1816C21.5332 14.4141 21.5391 14.3555 21.6738 14.2148C21.8262 14.0566 22.0664 14.0156 22.2656 14.1211ZM5.71289 15.0645C6.50391 15.2109 6.97266 15.8027 6.97266 16.6523V17.0098L6.55664 16.9688C6.06445 16.9219 5.83594 16.8398 5.53711 16.5762C5.21484 16.2891 5.03906 15.8848 5.03906 15.3926C5.03906 15 5.03906 15 5.20313 15C5.29688 15 5.52539 15.0293 5.71289 15.0645ZM8.9707 15.1172C9.26953 15.1992 9.66211 15.5625 9.82031 15.9023C9.92578 16.125 9.96094 16.3066 9.96094 16.6055V17.0098L9.53906 16.9688C8.57813 16.8809 8.02734 16.2715 8.02734 15.3047V14.9824L8.39649 15.0234C8.5957 15.041 8.85352 15.0879 8.9707 15.1172ZM23.9648 18.5156V19.9805H20.0098H16.0547V18.5156V17.0508H20.0098H23.9648V18.5156ZM5.15039 18.2051C5.67188 18.4629 5.96484 18.9668 5.9707 19.623L5.97656 19.998L5.57813 19.9688C4.64063 19.8984 4.10156 19.377 4.05469 18.4688L4.03125 18.0469H4.43555C4.75781 18.0469 4.9043 18.082 5.15039 18.2051ZM8.11524 18.1875C8.66016 18.4395 8.95899 18.9375 8.96484 19.582V19.9805H8.68359C8.25586 19.9805 7.81641 19.8281 7.55274 19.5879C7.21875 19.2832 7.07813 18.9785 7.04297 18.4688L7.01367 18.0469H7.41797C7.7168 18.0469 7.89844 18.082 8.11524 18.1875ZM11.1035 18.1875C11.666 18.4512 11.9473 18.9199 11.9531 19.582V19.9805H11.6719C11.0156 19.9805 10.4473 19.6582 10.1953 19.1309C10.125 18.9844 10.0547 18.6973 10.0371 18.4629L10.002 18.0469H10.4063C10.7109 18.0469 10.8867 18.082 11.1035 18.1875ZM26.9531 24.9902V28.9453H14.0039H1.05469V24.9902V21.0352H14.0039H26.9531V24.9902Z" fill="#0E5706"/>
<path d="M16.9922 18.5156V19.043H20.0098H23.0273V18.5156V17.9883H20.0098H16.9922V18.5156Z" fill="#0E5706"/>
<path d="M18.5741 22.1777L18.0175 22.7285L17.6952 22.6172C17.2733 22.4707 16.453 22.459 16.1015 22.5996C15.5448 22.8164 15.3046 23.0449 14.6249 23.9941L14.3436 24.3926L14.1444 24.1523C13.7929 23.7305 13.1249 23.3086 12.4979 23.1094C12.3397 23.0625 11.9179 23.0039 11.5604 22.9863C11.0214 22.957 10.8515 22.9687 10.6347 23.0508C10.1015 23.2559 9.92567 23.6602 9.98427 24.5859C10.0429 25.6348 10.3768 26.373 11.1034 27.0586C11.8534 27.7734 12.5272 28.0078 13.8456 28.0078H14.6952L16.3886 27.1641C17.5136 26.6016 18.1698 26.2383 18.3515 26.0801C18.6679 25.7988 18.9608 25.2539 19.0194 24.8262L19.0546 24.5508H19.5468H20.039V24.0234V23.4961H19.412H18.7792L19.3241 22.9512C19.6171 22.6523 19.8632 22.3828 19.8632 22.3477C19.8632 22.2949 19.2128 21.6211 19.1601 21.6211C19.1425 21.6211 18.8788 21.873 18.5741 22.1777ZM17.3964 23.6426C18.0526 23.9824 18.1464 24.8965 17.5604 25.3359C17.3261 25.5117 15.1171 26.6191 15.0761 26.5781C15.0585 26.5605 15.0233 26.3555 14.9999 26.1211C14.9706 25.8867 14.9354 25.6523 14.912 25.5996C14.8886 25.5293 15.0643 25.2363 15.4686 24.6797C16.0077 23.9238 16.2245 23.6895 16.4647 23.5957C16.6464 23.5312 17.2382 23.5547 17.3964 23.6426ZM12.0058 24.0879C12.7499 24.2578 13.4061 24.7852 13.7284 25.4707C13.8808 25.8047 13.9159 25.957 13.9335 26.4082L13.9569 26.9531H13.5526C12.0878 26.9531 11.0214 25.8105 11.0155 24.2402V24.0234H11.3847C11.5839 24.0234 11.8651 24.0527 12.0058 24.0879Z" fill="#0E5706"/>
</svg>
