<svg width="32" height="32" viewBox="0 0 32 32" fill="none" xmlns="http://www.w3.org/2000/svg">
<path d="M16 6.66669C14.7623 6.66669 13.5753 7.15835 12.7002 8.03352C11.825 8.90869 11.3333 10.0957 11.3333 11.3334C11.3333 12.571 11.825 13.758 12.7002 14.6332C13.5753 15.5084 14.7623 16 16 16C17.2377 16 18.4247 15.5084 19.2998 14.6332C20.175 13.758 20.6667 12.571 20.6667 11.3334C20.6667 10.0957 20.175 8.90869 19.2998 8.03352C18.4247 7.15835 17.2377 6.66669 16 6.66669ZM16 9.33335C16.5304 9.33335 17.0391 9.54407 17.4142 9.91914C17.7893 10.2942 18 10.8029 18 11.3334C18 11.8638 17.7893 12.3725 17.4142 12.7476C17.0391 13.1226 16.5304 13.3334 16 13.3334C15.4696 13.3334 14.9609 13.1226 14.5858 12.7476C14.2107 12.3725 14 11.8638 14 11.3334C14 10.8029 14.2107 10.2942 14.5858 9.91914C14.9609 9.54407 15.4696 9.33335 16 9.33335ZM7.33333 10.6667C6.44928 10.6667 5.60143 11.0179 4.97631 11.643C4.35119 12.2681 4 13.116 4 14C4 15.2534 4.70667 16.3334 5.72 16.9067C6.2 17.1734 6.74667 17.3334 7.33333 17.3334C7.92 17.3334 8.46667 17.1734 8.94667 16.9067C9.44 16.6267 9.85333 16.2267 10.16 15.7467C9.18864 14.4808 8.66357 12.929 8.66667 11.3334V10.96C8.26667 10.7734 7.81333 10.6667 7.33333 10.6667ZM24.6667 10.6667C24.1867 10.6667 23.7333 10.7734 23.3333 10.96V11.3334C23.3333 12.9334 22.8133 14.48 21.84 15.7467C22 16 22.1733 16.2 22.3733 16.4C22.9882 16.9962 23.8103 17.3307 24.6667 17.3334C25.2533 17.3334 25.8 17.1734 26.28 16.9067C27.2933 16.3334 28 15.2534 28 14C28 13.116 27.6488 12.2681 27.0237 11.643C26.3986 11.0179 25.5507 10.6667 24.6667 10.6667ZM16 18.6667C12.88 18.6667 6.66667 20.2267 6.66667 23.3334V25.3334H25.3333V23.3334C25.3333 20.2267 19.12 18.6667 16 18.6667ZM6.28 19.4C3.70667 19.7067 0 21.0134 0 23.3334V25.3334H4V22.76C4 21.4134 4.92 20.2934 6.28 19.4ZM25.72 19.4C27.08 20.2934 28 21.4134 28 22.76V25.3334H32V23.3334C32 21.0134 28.2933 19.7067 25.72 19.4ZM16 21.3334C18.04 21.3334 20.32 22 21.64 22.6667H10.36C11.68 22 13.96 21.3334 16 21.3334Z" fill="#0E5706"/>
</svg>
